<?xml version="1.0" ?>
<!-- Uploaded to: SVG Repo, www.svgrepo.com, Generator: SVG Repo Mixer Tools -->
<svg fill="#000000" width="800px" height="800px" viewBox="0 0 64 64" version="1.1" xml:space="preserve" xmlns="http://www.w3.org/2000/svg" xmlns:xlink="http://www.w3.org/1999/xlink">
<g id="cloudy_sunny"/>
<g id="bright"/>
<g id="cloudy"/>
<g id="high_rainfall"/>
<g id="windy"/>
<g id="rain_with_thunder"/>
<g id="clear_night"/>
<g id="cloudy_night">
<path d="M61,29c0-1.6-0.2-3.2-0.6-4.8c-0.1-0.4-0.5-0.7-0.9-0.8c-0.5,0-0.8,0.3-1,0.7C57.1,28.2,53.3,31,49,31c-5.5,0-10-4.5-10-10   c0-4.3,2.8-8.1,6.9-9.5c0.4-0.1,0.7-0.5,0.7-1c0-0.4-0.3-0.8-0.8-0.9C44.2,9.2,42.6,9,41,9c-10.1,0-18.6,7.5-19.8,17.5   c-2.7,1.4-4.9,3.9-6,6.9c-0.5-0.1-0.9-0.1-1.4-0.1C7.9,33.2,3,38.1,3,44.1S7.9,55,13.9,55h27.9c4.9,0,8.9-3.8,9.2-8.7   C57.2,42.8,61,36.2,61,29z M41.8,53H13.9C9,53,5,49,5,44.1s4-8.9,8.9-8.9c0.6,0,1.2,0.1,1.9,0.2c0.5,0.1,1-0.2,1.2-0.7   C18.1,30.2,22.3,27,27,27c5.8,0,10.5,4.7,10.5,10.5c0,0.6,0.4,1,1,1h3.3c4,0,7.2,3.2,7.2,7.2S45.8,53,41.8,53z M50.8,44.1   c-0.8-4.3-4.6-7.5-9.1-7.5h-2.3C39,30.1,33.6,25,27,25c-1.3,0-2.5,0.2-3.7,0.6C24.9,17.2,32.3,11,41,11c0.4,0,0.9,0,1.3,0   C39,13.2,37,16.9,37,21c0,6.6,5.4,12,12,12c4.1,0,7.8-2,10-5.3c0,0.4,0,0.9,0,1.3C59,35.1,55.9,40.8,50.8,44.1z"/>
</g>
<g id="moon"/>
<g id="sun"/>
<g id="rainy_night"/>
<g id="windy_night"/>
<g id="night_rain_thunder"/>
<g id="windy_rain"/>
<g id="temperature"/>
<g id="humidity"/>
<g id="air_pressure"/>
<g id="low_rainfall"/>
<g id="moderate_rainfall"/>
<g id="Sunset"/>
</svg>